<?xml version="1.0" encoding="UTF-8" standalone="no"?>
<!DOCTYPE svg PUBLIC "-//W3C//DTD SVG 1.1//EN" "http://www.w3.org/Graphics/SVG/1.1/DTD/svg11.dtd">
<svg width="100%" height="100%" viewBox="0 0 1000 1000" version="1.1" xmlns="http://www.w3.org/2000/svg" xmlns:xlink="http://www.w3.org/1999/xlink" xml:space="preserve" xmlns:serif="http://www.serif.com/" style="fill-rule:evenodd;clip-rule:evenodd;stroke-linejoin:round;stroke-miterlimit:2;">
    <g transform="matrix(1,0,0,1,-24.984782,23.873649)">
        <g transform="matrix(3.784088,0,0,3.784088,-1986.649624,-1476.745058)">
            <g transform="matrix(1,0,0,1,209.327476,0)">
                <g transform="matrix(0.447601,0,0,0.441683,233.091965,341.475862)">
                    <path d="M492.604,628.748C442.534,609.704 424.793,608.427 351.846,621.679C270.358,636.483 226.132,527.962 228,466C229.567,414.011 296.937,385.608 292.918,337.424C288.209,280.974 402.677,240.893 468.758,240.893C524.365,240.893 524.607,284.99 567.093,314.323C570.71,316.82 588.616,315.893 591.945,315.893C674.732,315.893 727,381.213 727,464C727,546.787 702.754,578.03 629.308,598.855C628.432,599.103 581.904,662.712 492.604,628.748Z" style="fill:rgb(0,151,100);"/>
                </g>
                <g transform="matrix(0.194824,0.402977,-0.397649,0.192248,574.665652,229.503538)">
                    <path d="M492.604,628.748C442.534,609.704 424.793,608.427 351.846,621.679C270.358,636.483 226.132,527.962 228,466C229.567,414.011 296.937,385.608 292.918,337.424C288.209,280.974 402.677,240.893 468.758,240.893C524.365,240.893 524.607,284.99 567.093,314.323C570.71,316.82 588.616,315.893 591.945,315.893C674.732,315.893 727,381.213 727,464C727,546.787 702.754,578.03 629.308,598.855C628.432,599.103 581.904,662.712 492.604,628.748Z" style="fill:rgb(29,200,142);"/>
                </g>
            </g>
        </g>
    </g>
</svg>
